<svg xmlns="http://www.w3.org/2000/svg" version="1.1" xmlns:xlink="http://www.w3.org/1999/xlink" xmlns:svgjs="http://svgjs.com/svgjs" width="1440" height="560" preserveAspectRatio="none" viewBox="0 0 1440 560"><g mask="url(&quot;#SvgjsMask1230&quot;)" fill="none"><rect width="1440" height="560" x="0" y="0" fill="url(#SvgjsLinearGradient1231)"></rect><path d="M1440 0L1172.78 0L1440 219.74z" fill="rgba(255, 255, 255, .1)"></path><path d="M1172.78 0L1440 219.74L1440 320.08000000000004L721.8499999999999 0z" fill="rgba(255, 255, 255, .075)"></path><path d="M721.8499999999999 0L1440 320.08000000000004L1440 360.58000000000004L557.4499999999999 0z" fill="rgba(255, 255, 255, .05)"></path><path d="M557.4499999999999 0L1440 360.58000000000004L1440 491.83000000000004L514.1999999999999 0z" fill="rgba(255, 255, 255, .025)"></path><path d="M0 560L558.58 560L0 359.03999999999996z" fill="rgba(0, 0, 0, .1)"></path><path d="M0 359.03999999999996L558.58 560L828.78 560L0 261.54999999999995z" fill="rgba(0, 0, 0, .075)"></path><path d="M0 261.55L828.78 560L839.37 560L0 260.41z" fill="rgba(0, 0, 0, .05)"></path><path d="M0 260.41L839.37 560L948.34 560L0 250.86z" fill="rgba(0, 0, 0, .025)"></path></g><defs><mask id="SvgjsMask1230"><rect width="1440" height="560" fill="#ffffff"></rect></mask><linearGradient x1="100%" y1="50%" x2="0%" y2="50%" gradientUnits="userSpaceOnUse" id="SvgjsLinearGradient1231"><stop stop-color="rgba(250, 253, 255, 1)" offset="0"></stop><stop stop-color="rgba(234, 208, 255, 1)" offset="1"></stop></linearGradient></defs></svg>