<svg xmlns="http://www.w3.org/2000/svg" version="1.1" xmlns:xlink="http://www.w3.org/1999/xlink" xmlns:svgjs="http://svgjs.com/svgjs" width="1440" height="560" preserveAspectRatio="none" viewBox="0 0 1440 560"><g mask="url(&quot;#SvgjsMask1010&quot;)" fill="none"><rect width="1440" height="560" x="0" y="0" fill="rgba(227, 219, 245, 1)"></rect><path d="M0,654.201C131.752,655.862,283.126,681.838,382.836,595.704C482.275,509.804,444.174,347.25,495.409,226.246C544.569,110.143,688.325,28.273,676.234,-97.228C664.182,-222.32,533.897,-298.595,437.121,-378.768C353.466,-448.071,254.369,-484.3,155.274,-528.813C39.055,-581.018,-70.677,-692.389,-194.528,-662.502C-318.005,-632.706,-368.224,-486.61,-443.525,-384.316C-512.648,-290.414,-614.842,-205.281,-616.916,-88.699C-618.961,26.244,-492.605,99.055,-454.05,207.358C-409.939,331.267,-470.426,493.87,-376.681,586.127C-283.859,677.475,-130.222,652.559,0,654.201" fill="#ccbeed"></path><path d="M1440 1084.388C1546.32 1084.114 1659.886 1098.804 1749.569 1041.699 1839.366 984.521 1876.349 876.299 1919.5810000000001 779.017 1962.3980000000001 682.669 2007.578 584.687 1999.376 479.574 1990.885 370.76099999999997 1956.9 254.68 1873.201 184.63 1792.12 116.77100000000002 1674.4 131.19299999999998 1569.3029999999999 119.63400000000001 1482.16 110.05000000000001 1395.869 98.53300000000002 1311.647 122.87 1227.177 147.279 1159.037 201.817 1091.222 257.782 1010.807 324.145 914.865 381.31100000000004 879.595 479.426 841.527 585.325 847.157 707.038 892.739 809.9259999999999 938.543 913.316 1028.3220000000001 992.602 1129.404 1043.297 1224.686 1091.083 1333.407 1084.663 1440 1084.388" fill="#faf8fd"></path></g><defs><mask id="SvgjsMask1010"><rect width="1440" height="560" fill="#ffffff"></rect></mask></defs></svg>