<svg id="visual" viewBox="0 0 900 50" width="900" height="50" xmlns="http://www.w3.org/2000/svg" xmlns:xlink="http://www.w3.org/1999/xlink" version="1.1"><path d="M0 22L12.5 21.8C25 21.7 50 21.3 75 22.3C100 23.3 125 25.7 150 26.5C175 27.3 200 26.7 225 26.2C250 25.7 275 25.3 300 25.7C325 26 350 27 375 25.7C400 24.3 425 20.7 450 19.7C475 18.7 500 20.3 525 20.5C550 20.7 575 19.3 600 19C625 18.7 650 19.3 675 21C700 22.7 725 25.3 750 25.2C775 25 800 22 825 22.2C850 22.3 875 25.7 887.5 27.3L900 29L900 51L887.5 51C875 51 850 51 825 51C800 51 775 51 750 51C725 51 700 51 675 51C650 51 625 51 600 51C575 51 550 51 525 51C500 51 475 51 450 51C425 51 400 51 375 51C350 51 325 51 300 51C275 51 250 51 225 51C200 51 175 51 150 51C125 51 100 51 75 51C50 51 25 51 12.5 51L0 51Z" fill="#7149c6" stroke-linecap="round" stroke-linejoin="miter"></path></svg>