<svg id="visual" viewBox="0 0 900 50" width="900" height="50" xmlns="http://www.w3.org/2000/svg" xmlns:xlink="http://www.w3.org/1999/xlink" version="1.1"><path d="M0 15L11.5 17.3C23 19.7 46 24.3 69 24.2C92 24 115 19 138.2 17.3C161.3 15.7 184.7 17.3 207.8 17.3C231 17.3 254 15.7 277 16.3C300 17 323 20 346 22.3C369 24.7 392 26.3 415.2 27.3C438.3 28.3 461.7 28.7 484.8 27.8C508 27 531 25 554 23.8C577 22.7 600 22.3 623 23.5C646 24.7 669 27.3 692.2 27.8C715.3 28.3 738.7 26.7 761.8 25.7C785 24.7 808 24.3 831 24.3C854 24.3 877 24.7 888.5 24.8L900 25L900 51L888.5 51C877 51 854 51 831 51C808 51 785 51 761.8 51C738.7 51 715.3 51 692.2 51C669 51 646 51 623 51C600 51 577 51 554 51C531 51 508 51 484.8 51C461.7 51 438.3 51 415.2 51C392 51 369 51 346 51C323 51 300 51 277 51C254 51 231 51 207.8 51C184.7 51 161.3 51 138.2 51C115 51 92 51 69 51C46 51 23 51 11.5 51L0 51Z" fill="#7149C6" stroke-linecap="round" stroke-linejoin="miter"></path></svg>