<svg id="visual" viewBox="0 0 900 50" width="900" height="50" xmlns="http://www.w3.org/2000/svg" xmlns:xlink="http://www.w3.org/1999/xlink" version="1.1"><rect x="0" y="0" width="900" height="50" fill="#FFFFFF"></rect><path d="M0 21L10.7 19.8C21.3 18.7 42.7 16.3 64.2 17.2C85.7 18 107.3 22 128.8 23.8C150.3 25.7 171.7 25.3 193 26.7C214.3 28 235.7 31 257 30C278.3 29 299.7 24 321.2 21.3C342.7 18.7 364.3 18.3 385.8 20C407.3 21.7 428.7 25.3 450 27.2C471.3 29 492.7 29 514.2 28.5C535.7 28 557.3 27 578.8 28.2C600.3 29.3 621.7 32.7 643 31.8C664.3 31 685.7 26 707 22.7C728.3 19.3 749.7 17.7 771.2 16.8C792.7 16 814.3 16 835.8 17.7C857.3 19.3 878.7 22.7 889.3 24.3L900 26L900 51L889.3 51C878.7 51 857.3 51 835.8 51C814.3 51 792.7 51 771.2 51C749.7 51 728.3 51 707 51C685.7 51 664.3 51 643 51C621.7 51 600.3 51 578.8 51C557.3 51 535.7 51 514.2 51C492.7 51 471.3 51 450 51C428.7 51 407.3 51 385.8 51C364.3 51 342.7 51 321.2 51C299.7 51 278.3 51 257 51C235.7 51 214.3 51 193 51C171.7 51 150.3 51 128.8 51C107.3 51 85.7 51 64.2 51C42.7 51 21.3 51 10.7 51L0 51Z" fill="#7149C6" stroke-linecap="round" stroke-linejoin="miter"></path></svg>