<svg id="visual" viewBox="0 0 900 50" width="900" height="50" xmlns="http://www.w3.org/2000/svg" xmlns:xlink="http://www.w3.org/1999/xlink" version="1.1"><path d="M0 42L25 41.7C50 41.3 100 40.7 150 38C200 35.3 250 30.7 300 31C350 31.3 400 36.7 450 38.7C500 40.7 550 39.3 600 36.5C650 33.7 700 29.3 750 28.3C800 27.3 850 29.7 875 30.8L900 32L900 51L875 51C850 51 800 51 750 51C700 51 650 51 600 51C550 51 500 51 450 51C400 51 350 51 300 51C250 51 200 51 150 51C100 51 50 51 25 51L0 51Z" fill="#7149C6" stroke-linecap="round" stroke-linejoin="miter"></path></svg>