<?xml version="1.0" encoding="utf-8"?>
<!-- Svg Vector Icons : http://www.onlinewebfonts.com/icon -->
<!DOCTYPE svg PUBLIC "-//W3C//DTD SVG 1.1//EN" "http://www.w3.org/Graphics/SVG/1.1/DTD/svg11.dtd">
<svg version="1.1" xmlns="http://www.w3.org/2000/svg" xmlns:xlink="http://www.w3.org/1999/xlink" x="0px" y="0px" viewBox="0 0 1000 1000" enable-background="new 0 0 1000 1000" xml:space="preserve">
<metadata> Svg Vector Icons : http://www.onlinewebfonts.com/icon </metadata>
<g><path d="M631.8,465.5l-74.4,74.4l352.9,352.9l-72,72L485.4,611.9L132.5,964.8l-72-72l499.3-499.3c-19.2-38.4-22-83.2-8.4-134.4c13.6-51.2,40.4-96.8,80.4-136.8c49.6-49.6,104.8-78,165.6-85.2c60.8-7.2,109.6,7.6,146.4,44.4c36.8,36.8,51.6,86,44.4,147.6S952.6,346.3,903,395.9c-40,40-85.6,66.4-136.8,79.2C715,487.9,670.1,484.7,631.8,465.5L631.8,465.5z M286.1,559.1L70,343C30,303,10,255,10,199c0-56,20-104,60-144.1l360.1,357.7L286.1,559.1z"/></g>
</svg>